PathFileType	4	(X/Y/Z)	C:/Users/beibeiliu/ov580/test_trc/capture2\sequence.35_training_dense_right.trc
DataRate	CameraRate	NumFrames	NumMarkers	Units	OrigDataRate	OrigDataStartFrame	OrigNumFrames
120	120	16	19	mm	120	137	272
Frame#	Time	ThumbCMC			ThumbMCP			ThumbIP			ThumbTip			IndexMCP			IndexPIP			IndexTip			MiddleMCP			MiddlePIP			MiddleTip			RingMCP			RingPIP			RingTip			PinkyMCP			PinkyPIP			PinkyTip			BackHand1			BackHand2			BackHand3	
		X0	Y0	Z0	X1	Y1	Z1	X2	Y2	Z2	X3	Y3	Z3	X4	Y4	Z4	X5	Y5	Z5	X6	Y6	Z6	X7	Y7	Z7	X8	Y8	Z8	X9	Y9	Z9	X10	Y10	Z10	X11	Y11	Z11	X12	Y12	Z12	X13	Y13	Z13	X14	Y14	Z14	X15	Y15	Z15	X16	Y16	Z16	X17	Y17	Z17	X18	Y18	Z18	
136	1.13333	202.504	79.6062	-64.8322	190.559	74.513	-96.0672	188.631	69.0027	-122.607	192.93	49.2298	-139.92	244.989	46.3524	-116.456	234.92	41.3379	-147.408	198.412	40.9095	-146.312	240.543	27.4465	-122.795	219.303	26.4827	-144.28	188.738	34.9529	-124.442	232.577	10.0062	-114.901	206.643	11.4357	-131.19	186.262	29.2584	-108.122	224.799	-0.393724	-103.368	197.919	4.3116	-118.446	185.19	25.8765	-100.406	238.869	22.4158	-61.5918	224.736	28.7138	-30.8633	236.845	55.4803	-55.2525	
137	1.14167	205.234	80.1311	-62.5073	193.88	76.6288	-94.9414	193.302	72.9146	-123.788	194.888	52.0015	-136.355	249.017	46.884	-117.917	236.711	42.647	-144.606	204.028	45.2282	-147.828	242.619	29.0675	-120.636	216.478	30.6901	-142.663	191.74	40.9742	-121.308	234.33	10.6083	-116.631	205.941	17.3312	-130.892	190.365	34.1946	-105.761	225.251	0.838042	-105.304	201.314	6.01791	-119.244	185.846	24.3845	-95.4031	238.83	18.5324	-57.0601	229.58	31.2052	-31.0338	238.474	57.0883	-53.6399	
138	1.15	210.263	80.108	-58.6724	197.937	80.4723	-89.7183	197.384	76.8163	-118.964	199.391	56.6022	-138.496	252.264	46.3535	-113.729	239.147	44.8946	-142.761	208.033	47.6089	-143.877	245.999	30.0078	-119.094	218.962	33.4975	-138.331	194.596	40.3788	-118.17	235.79	13.2094	-110.965	207.63	17.4084	-128.602	193.313	37.0615	-105.005	226.756	1.39252	-102.967	204.099	9.47884	-118.564	188.008	28.9129	-96.1113	241.92	20.1271	-56.9174	229.903	24.9709	-28.4411	239.14	53.7605	-46.5892	
139	1.15833	213.034	76.2788	-52.6403	202.938	77.4422	-85.236	200.858	78.3678	-113.957	202.352	59.119	-130.038	255.841	50.1117	-110.221	241.612	47.536	-139.014	213.157	52.3993	-141.659	247.72	31.127	-114.9	220.825	34.94	-135.597	196.402	44.125	-114.08	236.508	16.1498	-108.806	212.26	19.1565	-127.396	193.927	38.0939	-101.801	224.594	-0.383617	-100.968	205.845	9.96204	-117.735	189.339	31.9323	-96.2096	240.256	19.222	-54.4071	229.66	23.6798	-24.538	241.576	50.118	-42.6882	
140	1.16667	216.511	75.7306	-49.6529	203.266	83.8385	-80.3246	201.704	81.1045	-105.746	204.553	62.2828	-127.031	255.171	49.7564	-103.118	240.617	45.816	-134.038	212.376	57.7696	-137.777	247.359	31.5718	-108.573	222.871	38.0334	-133.309	195.697	47.0937	-111.359	234.947	11.8661	-107.741	212.564	23.8495	-125.959	192.452	39.263	-99.5644	223.005	1.28484	-94.5592	205.667	11.4845	-116.165	190.207	36.5515	-94.0238	234.295	14.0257	-48.8568	226.694	21.5093	-24.0381	242.612	50.993	-39.311	
141	1.175	215.752	78.6792	-41.452	205.137	81.0297	-75.7749	204.852	83.8133	-103.572	203.861	64.8714	-121.003	256.183	49.2146	-102.299	242.018	45.815	-128.494	211.941	57.2058	-130.409	244.406	28.7246	-104.95	224.514	40.1739	-129.536	196.671	51.3007	-109.804	234.286	17.218	-106.042	209.297	25.4753	-121.934	193.51	42.8755	-101.478	219.442	-0.487708	-92.5242	201.192	15.7994	-112.533	187.153	33.8178	-92.2362	235.853	15.8199	-48.0558	224.142	16.8609	-17.5789	240.67	43.5414	-34.9542	
142	1.18333	218.75	75.7767	-39.1555	206.053	84.9344	-67.783	206.274	84.7388	-96.6798	204.064	68.6778	-114.597	254.399	45.4856	-95.0684	243.386	49.2706	-122.931	213.402	61.9001	-125.18	244.567	29.382	-103.008	224.056	37.2001	-124.49	196.416	54.3219	-100.751	232.196	15.1631	-103.628	213.379	27.2374	-119.345	192.272	45.1622	-92.9465	218.182	1.69714	-91.3194	202.774	16.8804	-110.052	184.288	36.9717	-87.583	231.127	13.6161	-41.1881	223.591	11.8248	-17.3155	243.096	43.0938	-29.8052	
143	1.19167	219.671	71.2086	-32.2104	207.105	83.9853	-58.8533	207.08	87.1206	-89.8172	206.725	69.6435	-111.749	254.64	47.4345	-87.2526	241.711	53.4454	-118.344	211.626	63.805	-114.748	244.458	30.0595	-95.9641	223.906	40.3504	-119.751	198.13	57.9344	-95.7049	231.66	16.0628	-94.0703	206.66	30.7244	-113.537	192.715	46.8273	-90.0798	216.357	1.88566	-85.5667	200.044	17.4421	-105.565	189.444	41.875	-84.6272	234.041	11.0395	-41.2015	219.837	13.8057	-9.02597	239.657	39.8274	-25.854	
144	1.2	218.038	69.9496	-19.7505	207.85	84.3506	-51.7218	208.617	86.3553	-79.1224	207.614	76.7581	-103.058	256.154	47.5992	-84.2704	240.33	53.4043	-111.508	215.356	70.3696	-107.164	245.532	34.6753	-89.2119	223.758	46.1673	-112.655	199.751	59.9781	-90.5651	231.599	18.3138	-93.1626	210.852	30.9581	-108.901	192.343	47.8463	-81.2711	216.279	2.54021	-84.4054	200.356	24.8512	-101.256	189.963	41.5114	-81.1577	230.735	9.74357	-38.3653	220.072	10.6904	-4.33657	242.395	35.9202	-19.9222	
145	1.20833	219.1	67.5439	-12.7947	210.864	81.4405	-44.2069	210.513	89.5473	-69.6673	211.331	79.6163	-94.3997	255.237	47.1123	-76.744	244.61	56.909	-102.541	215.795	74.0741	-94.8833	246.549	34.5752	-82.9553	226.505	50.0512	-106.097	200.448	60.7337	-81.0783	233.344	21.3546	-86.4846	211.112	38.7599	-102.036	194.245	48.6901	-73.5581	218.372	6.70251	-78.2453	203.549	25.3893	-96.2415	187.454	41.4851	-71.5524	228.206	5.07732	-30.3043	219.415	6.77207	-1.70771	240.397	31.3618	-12.3187	
146	1.21667	221.6	65.8721	-6.08634	211.518	79.962	-30.9318	214.677	89.5566	-59.6028	213.149	82.6238	-81.4743	259.507	52.302	-68.4584	248.307	62.8843	-91.6466	214.83	75.0106	-80.0208	247.014	37.698	-75.5812	226.406	53.9801	-96.4763	202.601	63.0668	-66.7679	232.788	23.2579	-78.1105	212.201	42.4889	-92.7407	196.632	51.6045	-65.6101	220.051	9.31304	-76.4554	204.607	31.4397	-88.4095	195.225	45.2517	-61.5041	233.673	7.3088	-26.0511	218.633	4.29336	1.51591	239.083	31.4364	-3.24128	
147	1.225	221.631	65.5978	6.12161	212.114	80.6082	-19.5598	215.729	90.6732	-45.2195	216.549	83.8113	-69.5974	258.171	51.9047	-55.0181	247.139	65.9443	-80.7322	217.63	78.8522	-66.2319	248.853	38.5387	-69.0588	228.607	60.3073	-85.813	207.74	68.6717	-56.413	235.999	28.1651	-69.906	216.221	45.6144	-84.6175	199.162	54.3652	-55.6959	222.51	13.7141	-64.0457	207.363	32.6083	-80.6904	192.777	46.5885	-54.9783	232.321	6.65651	-16.6699	220.506	4.05398	7.53836	238.599	28.4624	5.75965	
148	1.23333	220.704	61.6792	17.394	213.38	82.0707	-9.4421	218.524	94.7933	-34.6422	218.869	89.6114	-58.4648	262.263	56.7849	-44.9374	246.548	71.9982	-68.0504	219.665	84.1189	-52.2688	252.525	44.1084	-57.3494	234.716	60.9213	-76.494	208.073	67.685	-47.5649	239.754	32.6186	-61.8983	219.068	49.1871	-75.8424	203.362	57.1851	-46.2797	225.876	16.1591	-60.2813	207.454	37.3364	-72.1273	197.414	47.3853	-42.3981	232.23	6.34829	-11.8337	220.495	1.17213	16.8837	240.525	25.4585	15.1026	
149	1.24167	219.898	61.8969	29.3816	211.93	78.465	5.16172	217.756	96.6715	-21.2889	218.608	88.0152	-46.7079	260.763	55.7264	-33.3176	250.059	71.858	-56.0941	220.419	81.3062	-44.2812	253.777	45.3064	-44.5799	236.703	65.1204	-64.3161	208.176	68.9007	-38.2908	241.414	34.0739	-51.1248	223.713	51.244	-65.6534	202.864	56.82	-35.104	227.295	18.7252	-51.8805	211.857	39.9058	-63.8344	198.639	48.8042	-34.8649	233.811	5.82922	-1.69042	220.306	-3.02272	23.0364	242.353	27.9794	23.7945	
150	1.25	219.666	58.0758	39.5331	213.531	78.8909	12.7516	216.453	93.8761	-8.23907	219.96	92.5925	-36.4126	262.201	60.0778	-21.6135	252.369	78.2663	-45.064	219.596	85.9381	-27.7843	253.548	47.3333	-38.1497	233.307	67.4204	-54.162	207.663	68.5838	-27.0715	241.447	33.2928	-42.2039	221.785	55.7308	-56.0875	204.436	59.7525	-30.3407	228.389	19.5563	-40.7623	215.204	38.9774	-56.9873	197.166	49.1899	-28.5981	236.633	6.12435	4.28976	223.156	-2.67327	29.3403	242.312	25.394	30.6422	
151	1.25833	221.113	57.8775	45.8997	211.546	79.6751	23.7523	217.07	91.4325	-1.88826	217.239	90.0145	-26.6695	261.447	62.0432	-12.7616	248.852	76.3103	-36.8853	216.715	82.4731	-19.2375	252.496	46.7358	-28.4419	234.539	68.4221	-46.1739	208.591	71.5558	-20.6521	241.316	34.2547	-40.5446	219.926	55.2873	-49.1499	202.302	56.7205	-23.7855	227.813	16.037	-36.921	213.358	41.1907	-48.4288	197.604	46.2308	-19.488	236.57	5.83889	11.8264	220.555	-8.38837	37.0809	241.9	24.6635	38.4433	
